<?xml version="1.0" encoding="utf-8"?>
<!-- Generator: Adobe Illustrator 18.1.0, SVG Export Plug-In . SVG Version: 6.00 Build 0)  -->
<!DOCTYPE svg PUBLIC "-//W3C//DTD SVG 1.1//EN" "http://www.w3.org/Graphics/SVG/1.1/DTD/svg11.dtd">
<svg version="1.1" id="Layer_1" xmlns="http://www.w3.org/2000/svg" xmlns:xlink="http://www.w3.org/1999/xlink" x="0px" y="0px"
	 viewBox="0 0 214.6 280.9" enable-background="new 0 0 214.6 280.9" xml:space="preserve">
<linearGradient id="SVGID_1_" gradientUnits="userSpaceOnUse" x1="15.2777" y1="107.5509" x2="199.2777" y2="107.5509">
	<stop  offset="0" style="stop-color:#8DC63F"/>
	<stop  offset="1" style="stop-color:#FFF200"/>
</linearGradient>
<circle fill="url(#SVGID_1_)" cx="107.3" cy="107.6" r="92"/>
<path fill="#009444" d="M107.3,0.3C48,0.3,0,47.5,0,105.8s89.9,175.1,110.3,175.1c21.5,0,104.2-116.9,104.2-175.1
	S166.5,0.3,107.3,0.3z M107.3,191.9c-48.5,0-87.9-38.7-87.9-86.4s39.3-86.4,87.9-86.4s87.9,38.7,87.9,86.4S155.8,191.9,107.3,191.9z
	"/>
<g>
	<defs>
		<circle id="SVGID_2_" cx="107.3" cy="105" r="88"/>
	</defs>
	<clipPath id="SVGID_3_">
		<use xlink:href="#SVGID_2_"  overflow="visible"/>
	</clipPath>
	<polygon clip-path="url(#SVGID_3_)" fill="#006838" points="110.7,201.4 52.9,225 52.9,73.7 110.7,50.1 	"/>
	<polygon clip-path="url(#SVGID_3_)" fill="#2BB673" points="168.7,215.6 110.9,201.4 110.9,50.1 168.7,64.2 	"/>
	<polygon clip-path="url(#SVGID_3_)" fill="#006838" points="52.8,204 11.2,218.3 11.2,126.1 52.8,111.7 	"/>
	<polygon clip-path="url(#SVGID_3_)" fill="#2BB673" points="94.5,212.6 52.9,204 52.9,111.7 94.5,120.3 	"/>
	<polygon clip-path="url(#SVGID_3_)" fill="#006838" points="175.4,209 143.5,220 143.5,149.3 175.4,138.3 	"/>
	<polygon clip-path="url(#SVGID_3_)" fill="#2BB673" points="207.4,215.6 175.5,209 175.5,138.3 207.4,144.9 	"/>
	<polygon clip-path="url(#SVGID_3_)" fill="#006838" points="136.2,207 116,214 116,169.3 136.2,162.3 	"/>
	<polygon clip-path="url(#SVGID_3_)" fill="#2BB673" points="156.4,211.2 136.2,207 136.2,162.3 156.4,166.5 	"/>
</g>
<path opacity="0.21" fill="#FFFFFF" d="M0.3,107c0-59.1,47.9-107,107-107s107,47.9,107,107c0,0-47.9-23-107-23S0.3,107,0.3,107z"/>
</svg>
